<svg width="16" height="11" viewBox="0 0 16 11" fill="none" xmlns="http://www.w3.org/2000/svg">
<g filter="url(#filter0_d_22_131)">
<path d="M3.33331 0.5V9.5H7.33331V7.75H8.66665V9.5H12.6666V0.5H3.33331ZM4.66665 1.5H5.99998V2.5H4.66665V1.5ZM7.33331 1.5H8.66665V2.5H7.33331V1.5ZM9.99998 1.5H11.3333V2.5H9.99998V1.5ZM4.66665 3.5H5.99998V4.5H4.66665V3.5ZM7.33331 3.5H8.66665V4.5H7.33331V3.5ZM9.99998 3.5H11.3333V4.5H9.99998V3.5ZM4.66665 5.5H5.99998V6.5H4.66665V5.5ZM7.33331 5.5H8.66665V6.5H7.33331V5.5ZM9.99998 5.5H11.3333V6.5H9.99998V5.5ZM4.66665 7.5H5.99998V8.5H4.66665V7.5ZM9.99998 7.5H11.3333V8.5H9.99998V7.5Z" fill="#A7A7A7"/>
</g>
<defs>
<filter id="filter0_d_22_131" x="-0.666687" y="0.5" width="17.3333" height="17" filterUnits="userSpaceOnUse" color-interpolation-filters="sRGB">
<feFlood flood-opacity="0" result="BackgroundImageFix"/>
<feColorMatrix in="SourceAlpha" type="matrix" values="0 0 0 0 0 0 0 0 0 0 0 0 0 0 0 0 0 0 127 0" result="hardAlpha"/>
<feOffset dy="4"/>
<feGaussianBlur stdDeviation="2"/>
<feComposite in2="hardAlpha" operator="out"/>
<feColorMatrix type="matrix" values="0 0 0 0 0 0 0 0 0 0 0 0 0 0 0 0 0 0 0.25 0"/>
<feBlend mode="normal" in2="BackgroundImageFix" result="effect1_dropShadow_22_131"/>
<feBlend mode="normal" in="SourceGraphic" in2="effect1_dropShadow_22_131" result="shape"/>
</filter>
</defs>
</svg>
